<?xml version="1.0" encoding="utf-8"?>
<!-- Generator: Adobe Illustrator 21.1.0, SVG Export Plug-In . SVG Version: 6.00 Build 0)  -->
<svg version="1.1" xmlns="http://www.w3.org/2000/svg" xmlns:xlink="http://www.w3.org/1999/xlink" x="0px" y="0px"
	 viewBox="0 0 360 360" style="enable-background:new 0 0 360 360;" xml:space="preserve">
<style type="text/css">
	.st0{fill:#F2F2F2;}
</style>
<g id="o">
	<path class="st0" d="M239.7,257.3c-1.9-3.8-6.5-5.4-10.4-3.5c-14.9,7.2-31.6,11.2-49.3,11.2c-17.9,0-34.8-4.1-49.9-11.5
		c-3.8-1.8-8.4-0.3-10.4,3.4l0,0c-2.1,3.9-0.5,8.8,3.5,10.7c17.1,8.3,36.4,13,56.7,13c20.1,0,39-4.6,56-12.7
		C240,266,241.7,261.2,239.7,257.3L239.7,257.3z"/>
	<path class="st0" d="M270.5,228.1L270.5,228.1c2.8,4.9,9.7,5.4,13.1,0.9c15-19.7,24.4-43.9,26.1-70.1c0.3-4.5-3.3-8.4-7.8-8.4l0,0
		c-4.1,0-7.6,3.2-7.8,7.3c-1.5,23.1-9.8,44.3-23,61.7C269.3,222,269,225.4,270.5,228.1z"/>
	<path class="st0" d="M180,28.7L180,28.7c0-4.5-3.8-8.1-8.3-7.8C103.7,25.1,50,81.6,50,150.6c0,29.6,9.9,56.9,26.6,78.7
		c3.4,4.4,10.1,4.1,13-0.7l0,0c1.7-2.8,1.5-6.3-0.5-8.8c-14.6-19.2-23.3-43.2-23.3-69.2c0-60.7,47.3-110.4,107.1-114.1
		C176.8,36.2,180,32.8,180,28.7z"/>
	<circle class="st0" cx="300.5" cy="123.8" r="9.5"/>
	<circle class="st0" cx="287.3" cy="92" r="9.5"/>
	<circle class="st0" cx="264" cy="66.9" r="9.5"/>
	<circle class="st0" cx="239.3" cy="45.8" r="9.5"/>
	<circle class="st0" cx="206.4" cy="32.6" r="9.5"/>
</g>
<g id="a">
	<path class="st0" d="M266.1,248l-7.5-14.4l-60.7-116.7c-7.5-14.5-28.3-14.5-35.8,0l-60.7,116.7L93.9,248l-41.3,79.4
		c-1.9,3.6-0.7,8.1,2.7,10.3h0c3.9,2.5,9.2,1.2,11.3-3l39.9-76.8l7.3-14.1l58.6-112.7c3.1-6.1,11.8-6.1,15,0l58.6,112.7l7.3,14.1
		l40.1,77.2c2.1,4,7,5.5,10.9,3.2h0c3.7-2.1,5.1-6.8,3.1-10.5L266.1,248z"/>
</g>
</svg>
